<svg width="60" height="106" viewBox="0 0 60 106" fill="none" xmlns="http://www.w3.org/2000/svg">
<circle cx="17.3686" cy="7.28363" r="7.28363" fill="#071F7A"/>
<path d="M38.3791 13.7267C36.1379 12.1579 30.1616 12.326 27.4536 12.6062C28.7983 12.6062 30.4418 20.0765 31.0954 23.8117L43.9818 24.6521C37.2585 26.0528 39.5556 30.0308 39.7797 31.3755C40.0039 32.7202 44.0752 32.4027 45.3825 32.2159L52.6662 22.1309C50.425 18.4891 40.6202 15.2955 38.3791 13.7267Z" fill="#071F7B"/>
<path d="M8.96418 104.772C4.02603 104.443 10.178 96.5549 11.4853 91.3256C9.52439 82.828 5.54644 64.6562 5.32233 59.9498C5.04219 54.0669 15.6875 49.3047 17.0882 44.8224C18.4889 40.3402 33.4381 39.6922 37.8185 41.1806C42.1989 42.6691 43.9816 54.8141 45.6624 61.6308C48.7439 68.2608 54.4647 82.055 57.9886 87.9638C61.5125 93.8726 56.5718 95.5275 54.907 93.2866C53.2422 91.0456 43.8882 77.8789 39.2192 70.035C39.2192 70.035 34.5633 60.1861 33.0561 58.5493C31.5489 56.9124 29.6227 56.1438 26.8931 56.5883C24.1635 57.0329 20.8204 60.3759 20.73 62.7514C20.6396 65.1268 20.73 91.9418 20.73 95.5275C20.73 100.01 13.9023 105.101 8.96418 104.772Z" fill="#071F7B"/>
<circle cx="32.3177" cy="95.2201" r="10.7797" fill="#081F7A"/>
<path d="M6.26686 44.914C3.58898 46.0617 1.12056 48.7434 0 50.4242C1.4007 55.4667 5.81771 50.753 8.96178 48.9564C11.8805 47.2885 18.3563 41.5848 19.0495 40.6193C20.9223 38.0107 19.2993 34.7021 17.0885 35.2967C14.9408 38.6584 9.41093 43.5665 6.26686 44.914Z" fill="#071F7B"/>
<path d="M13.7266 8.68469C10.6451 8.68469 10.3649 7.28399 10.0881 6.44357C9.86396 5.32301 11.7624 6.44357 23.2514 2.80176C23.3448 3.17528 23.5315 3.36204 23.5315 3.36204C23.5315 3.64218 19.6887 3.87092 19.8897 6.16343C19.8897 7.56413 16.8082 8.68469 13.7266 8.68469Z" fill="#FFC815"/>
</svg>
