<svg width="66" height="118" viewBox="0 0 66 118" fill="none" xmlns="http://www.w3.org/2000/svg">
<circle cx="19.3347" cy="8.10819" r="8.10819" fill="#071F7A"/>
<path d="M42.7238 15.2806C40.229 13.5342 33.5761 13.7213 30.5615 14.0332C32.0584 14.0332 33.888 22.3492 34.6156 26.5073L48.9609 27.4428C41.4764 29.0021 44.0336 33.4304 44.2831 34.9273C44.5326 36.4242 49.0648 36.0708 50.5201 35.8629L58.6283 24.6362C56.1335 20.5821 45.2186 17.027 42.7238 15.2806Z" fill="#071F7B"/>
<path d="M9.97913 116.633C4.48194 116.267 11.3304 107.486 12.7857 101.665C10.6028 92.2051 6.17447 71.9761 5.92499 66.737C5.61314 60.188 17.4636 54.8867 19.0228 49.897C20.5821 44.9074 37.2236 44.186 42.1 45.8429C46.9763 47.4999 48.9608 61.0198 50.8319 68.6082C54.2623 75.9888 60.6306 91.3446 64.5535 97.9223C68.4763 104.5 62.9763 106.342 61.123 103.848C59.2697 101.353 48.8568 86.6957 43.6592 77.9638C43.6592 77.9638 38.4763 67 36.7985 65.1779C35.1206 63.3557 32.9763 62.5 29.9377 62.9949C26.8991 63.4898 23.1775 67.2113 23.0769 69.8557C22.9763 72.5 23.0769 102.351 23.0769 106.342C23.0769 111.332 15.4763 117 9.97913 116.633Z" fill="#071F7B"/>
<circle cx="35.9763" cy="106" r="12" fill="#081F7A"/>
<path d="M6.97632 49.999C3.99528 51.2765 1.24741 54.2619 0 56.133C1.55927 61.7463 6.47632 56.499 9.97632 54.499C13.2255 52.6423 20.4344 46.2929 21.206 45.2181C23.2909 42.3142 21.4842 38.631 19.0231 39.2929C16.6322 43.0351 10.4763 48.499 6.97632 49.999Z" fill="#071F7B"/>
<path d="M15.2807 9.66806C11.8503 9.66806 11.5385 8.10879 11.2302 7.17323C10.9807 5.92582 13.0941 7.17323 25.8837 3.11914C25.9877 3.53495 26.1956 3.74285 26.1956 3.74285C26.1956 4.0547 21.9177 4.30934 22.1415 6.86138C22.1415 8.42065 18.7111 9.66806 15.2807 9.66806Z" fill="#FFC815"/>
</svg>
