<svg width="91" height="89" viewBox="0 0 91 89" fill="none" xmlns="http://www.w3.org/2000/svg">
<path d="M26.954 50.8525C26.954 50.2426 27.4507 49.7506 28.0578 49.7506H31.7985C32.4094 49.7506 32.9022 50.2465 32.9022 50.8525C32.9022 51.4625 32.4056 51.9544 31.7985 51.9544L28.0578 51.9584C27.4507 51.9584 26.954 51.4625 26.954 50.8525ZM28.0578 44.1863H31.7985C32.4094 44.1863 32.9022 43.6905 32.9022 43.0844C32.9022 42.4744 32.4056 41.9825 31.7985 41.9825L28.0578 41.9786C27.4468 41.9786 26.954 42.4744 26.954 43.0805C26.954 43.6944 27.4507 44.1863 28.0578 44.1863ZM28.0578 28.646H31.7985C32.4094 28.646 32.9022 28.1502 32.9022 27.5441C32.9022 26.9342 32.4056 26.4422 31.7985 26.4422L28.0578 26.4383C27.4468 26.4383 26.954 26.9341 26.954 27.5402C26.954 28.1502 27.4507 28.646 28.0578 28.646ZM37.4628 75.2658H41.2035C41.8145 75.2658 42.3072 74.77 42.3072 74.1639C42.3072 73.554 41.8106 73.062 41.2035 73.062H37.4628C36.8518 73.062 36.3591 73.5579 36.3591 74.1639C36.3551 74.7739 36.8518 75.2658 37.4628 75.2658ZM28.0578 36.4142H31.7985C32.4094 36.4142 32.9022 35.9183 32.9022 35.3123C32.9022 34.7023 32.4056 34.2104 31.7985 34.2104H28.0578C27.4468 34.2104 26.954 34.7062 26.954 35.3123C26.954 35.9222 27.4507 36.4142 28.0578 36.4142ZM80.7555 36.4142H84.4962C85.1072 36.4142 85.6 35.9183 85.6 35.3123C85.6 34.7023 85.1033 34.2104 84.4962 34.2104H80.7555C80.1445 34.2104 79.6518 34.7062 79.6518 35.3123C79.6518 35.9222 80.1445 36.4142 80.7555 36.4142ZM80.7555 28.6461H84.4962C85.1072 28.6461 85.6 28.1503 85.6 27.5442C85.6 26.9343 85.1033 26.4423 84.4962 26.4423H80.7555C80.1445 26.4423 79.6518 26.9382 79.6518 27.5442C79.6518 28.1502 80.1445 28.6461 80.7555 28.6461ZM28.0578 67.4978H31.7985C32.4094 67.4978 32.9022 67.002 32.9022 66.3959C32.9022 65.7859 32.4056 65.294 31.7985 65.294L28.0578 65.2901C27.4468 65.2901 26.954 65.7859 26.954 66.392C26.954 67.0019 27.4507 67.4978 28.0578 67.4978ZM80.7555 20.874H84.4962C85.1072 20.874 85.6 20.3781 85.6 19.7721C85.6 19.1621 85.1033 18.6702 84.4962 18.6702H80.7555C80.1445 18.6702 79.6518 19.166 79.6518 19.7721C79.6518 20.382 80.1445 20.874 80.7555 20.874ZM28.0578 75.2659H31.7985C32.4094 75.2659 32.9022 74.7701 32.9022 74.164C32.9022 73.5541 32.4056 73.0621 31.7985 73.0621H28.0578C27.4468 73.0621 26.954 73.558 26.954 74.164C26.954 74.774 27.4507 75.2659 28.0578 75.2659ZM28.0578 59.7257H31.7985C32.4094 59.7257 32.9022 59.2298 32.9022 58.6238C32.9022 58.0138 32.4056 57.5219 31.7985 57.5219H28.0578C27.4468 57.5219 26.954 58.0177 26.954 58.6238C26.954 59.2337 27.4507 59.7257 28.0578 59.7257ZM80.7555 44.1854H84.4962C85.1072 44.1854 85.6 43.6896 85.6 43.0835C85.6 42.4735 85.1033 41.9816 84.4962 41.9816H80.7555C80.1445 41.9816 79.6518 42.4774 79.6518 43.0835C79.6518 43.6934 80.1445 44.1854 80.7555 44.1854ZM46.8602 51.9573H50.6009C51.2118 51.9573 51.7046 51.4615 51.7046 50.8554C51.7046 50.2455 51.2079 49.7535 50.6009 49.7535H46.8602C46.2492 49.7535 45.7564 50.2494 45.7564 50.8554C45.7564 51.4615 46.2531 51.9573 46.8602 51.9573ZM46.8602 67.4976H50.6009C51.2118 67.4976 51.7046 67.0018 51.7046 66.3957C51.7046 65.7858 51.2079 65.2938 50.6009 65.2938H46.8602C46.2492 65.2938 45.7564 65.7896 45.7564 66.3957C45.7564 67.0017 46.2531 67.4976 46.8602 67.4976ZM46.8602 36.4141H50.6009C51.2118 36.4141 51.7046 35.9182 51.7046 35.3121C51.7046 34.7022 51.2079 34.2102 50.6009 34.2102H46.8602C46.2492 34.2102 45.7564 34.7061 45.7564 35.3121C45.7564 35.9221 46.2531 36.4141 46.8602 36.4141ZM46.8602 75.2657H50.6009C51.2118 75.2657 51.7046 74.7699 51.7046 74.1638C51.7046 73.5539 51.2079 73.0619 50.6009 73.0619H46.8602C46.2492 73.0619 45.7564 73.5578 45.7564 74.1638C45.7564 74.7738 46.2531 75.2657 46.8602 75.2657ZM37.463 67.4977H41.2037C41.8147 67.4977 42.3074 67.0019 42.3074 66.3958C42.3074 65.7859 41.8108 65.2939 41.2037 65.2939H37.463C36.852 65.2939 36.3593 65.7897 36.3593 66.3958C36.3553 67.0018 36.852 67.4977 37.463 67.4977ZM46.8602 44.1853H50.6009C51.2118 44.1853 51.7046 43.6895 51.7046 43.0834C51.7046 42.4734 51.2079 41.9815 50.6009 41.9815H46.8602C46.2492 41.9815 45.7564 42.4773 45.7564 43.0834C45.7564 43.6933 46.2531 44.1853 46.8602 44.1853ZM37.463 51.9572H41.2037C41.8147 51.9572 42.3074 51.4614 42.3074 50.8553C42.3074 50.2454 41.8108 49.7534 41.2037 49.7534H37.463C36.852 49.7534 36.3593 50.2493 36.3593 50.8553C36.3553 51.4614 36.852 51.9572 37.463 51.9572ZM37.463 59.7253H41.2037C41.8147 59.7253 42.3074 59.2294 42.3074 58.6234C42.3074 58.0134 41.8108 57.5215 41.2037 57.5215H37.463C36.852 57.5215 36.3593 58.0173 36.3593 58.6234C36.3553 59.2333 36.852 59.7253 37.463 59.7253ZM37.463 36.4128H41.2037C41.8147 36.4128 42.3074 35.917 42.3074 35.3109C42.3074 34.701 41.8108 34.209 41.2037 34.209H37.463C36.852 34.209 36.3593 34.7049 36.3593 35.3109C36.3553 35.9209 36.852 36.4128 37.463 36.4128ZM37.463 44.1848H41.2037C41.8147 44.1848 42.3074 43.689 42.3074 43.0829C42.3074 42.4729 41.8108 41.981 41.2037 41.981H37.463C36.852 41.981 36.3593 42.4768 36.3593 43.0829C36.3553 43.6928 36.852 44.1848 37.463 44.1848ZM37.463 28.6445H41.2037C41.8147 28.6445 42.3074 28.1487 42.3074 27.5426C42.3074 26.9327 41.8108 26.4407 41.2037 26.4407H37.463C36.852 26.4407 36.3593 26.9366 36.3593 27.5426C36.3553 28.1486 36.852 28.6445 37.463 28.6445ZM46.8602 59.7251H50.6009C51.2118 59.7251 51.7046 59.2292 51.7046 58.6232C51.7046 58.0132 51.2079 57.5213 50.6009 57.5213H46.8602C46.2492 57.5213 45.7564 58.0171 45.7564 58.6232C45.7564 59.2331 46.2531 59.7251 46.8602 59.7251ZM61.9531 44.1848H65.6938C66.3048 44.1848 66.7976 43.689 66.7976 43.0829C66.7976 42.4729 66.3009 41.981 65.6938 41.981H61.9531C61.3422 41.981 60.8494 42.4768 60.8494 43.0829C60.8494 43.6928 61.3461 44.1848 61.9531 44.1848ZM61.9531 13.1043H65.6938C66.3048 13.1043 66.7976 12.6084 66.7976 12.0024C66.7976 11.3924 66.3009 10.9004 65.6938 10.9004H61.9531C61.3422 10.9004 60.8494 11.3963 60.8494 12.0024C60.8494 12.6084 61.3461 13.1043 61.9531 13.1043ZM61.9531 36.4126H65.6938C66.3048 36.4126 66.7976 35.9168 66.7976 35.3107C66.7976 34.7008 66.3009 34.2088 65.6938 34.2088H61.9531C61.3422 34.2088 60.8494 34.7047 60.8494 35.3107C60.8494 35.9207 61.3461 36.4126 61.9531 36.4126ZM61.9531 28.6446H65.6938C66.3048 28.6446 66.7976 28.1488 66.7976 27.5427C66.7976 26.9328 66.3009 26.4408 65.6938 26.4408H61.9531C61.3422 26.4408 60.8494 26.9367 60.8494 27.5427C60.8494 28.1487 61.3461 28.6446 61.9531 28.6446ZM61.9531 20.8727H65.6938C66.3048 20.8727 66.7976 20.3768 66.7976 19.7708C66.7976 19.1608 66.3009 18.6689 65.6938 18.6689H61.9531C61.3422 18.6689 60.8494 19.1647 60.8494 19.7708C60.8494 20.3807 61.3461 20.8727 61.9531 20.8727ZM61.9531 59.7243H65.6938C66.3048 59.7243 66.7976 59.2285 66.7976 58.6225C66.7976 58.0125 66.3009 57.5205 65.6938 57.5205H61.9531C61.3422 57.5205 60.8494 58.0164 60.8494 58.6225C60.8494 59.2324 61.3461 59.7243 61.9531 59.7243ZM61.9531 51.9563H65.6938C66.3048 51.9563 66.7976 51.4605 66.7976 50.8544C66.7976 50.2445 66.3009 49.7525 65.6938 49.7525H61.9531C61.3422 49.7525 60.8494 50.2484 60.8494 50.8544C60.8494 51.4604 61.3461 51.9563 61.9531 51.9563ZM61.9531 67.4966H65.6938C66.3048 67.4966 66.7976 67.0008 66.7976 66.3947C66.7976 65.7847 66.3009 65.2928 65.6938 65.2928H61.9531C61.3422 65.2928 60.8494 65.7886 60.8494 66.3947C60.8494 67.0007 61.3461 67.4966 61.9531 67.4966ZM90.8182 88.4708H0V24.6697L21.7308 15.0797L33.9024 17.9995V9.59002L55.6332 0L90.8172 8.44489L90.8182 88.4708ZM55.4485 24.6858L23.2131 16.9492V87.0033H36.3828V81.1203C36.3828 80.3057 37.041 79.6486 37.857 79.6486H40.8054C41.6174 79.6486 42.2796 80.3057 42.2796 81.1203V87.0033L55.4492 86.9994L55.4485 24.6858ZM89.3439 9.60593L57.1085 1.86935V87.0033L70.2781 86.9994V81.1163C70.2781 80.3018 70.9364 79.6446 71.7523 79.6446H74.7008C75.5167 79.6446 76.175 80.3018 76.175 81.1163V86.9994H89.3446L89.3439 9.60593ZM61.9521 75.2647H65.6928C66.3038 75.2647 66.7966 74.7689 66.7966 74.1628C66.7966 73.5529 66.2999 73.0609 65.6928 73.0609H61.9521C61.3412 73.0609 60.8484 73.5568 60.8484 74.1628C60.8484 74.7728 61.345 75.2647 61.9521 75.2647ZM80.7545 59.7245H84.4952C85.1062 59.7245 85.599 59.2286 85.599 58.6226C85.599 58.0126 85.1023 57.5206 84.4952 57.5206H80.7545C80.1435 57.5206 79.6508 58.0165 79.6508 58.6226C79.6508 59.2325 80.1435 59.7245 80.7545 59.7245ZM71.3534 13.1047H75.0941C75.7051 13.1047 76.1979 12.6088 76.1979 12.0028C76.1979 11.3928 75.7012 10.9009 75.0941 10.9009H71.3534C70.7424 10.9009 70.2497 11.3967 70.2497 12.0028C70.2497 12.6088 70.7463 13.1047 71.3534 13.1047ZM71.3534 20.8727H75.0941C75.7051 20.8727 76.1979 20.3768 76.1979 19.7708C76.1979 19.1608 75.7012 18.6689 75.0941 18.6689H71.3534C70.7424 18.6689 70.2497 19.1647 70.2497 19.7708C70.2497 20.3807 70.7463 20.8727 71.3534 20.8727ZM80.7545 75.2646H84.4952C85.1062 75.2646 85.599 74.7688 85.599 74.1627C85.599 73.5528 85.1023 73.0608 84.4952 73.0608H80.7545C80.1435 73.0608 79.6508 73.5567 79.6508 74.1627C79.6508 74.7727 80.1435 75.2646 80.7545 75.2646ZM71.3534 75.2646H75.0941C75.7051 75.2646 76.1979 74.7688 76.1979 74.1627C76.1979 73.5528 75.7012 73.0608 75.0941 73.0608H71.3534C70.7424 73.0608 70.2497 73.5567 70.2497 74.1627C70.2497 74.7727 70.7463 75.2646 71.3534 75.2646ZM80.7545 51.9562H84.4952C85.1062 51.9562 85.599 51.4604 85.599 50.8543C85.599 50.2444 85.1023 49.7524 84.4952 49.7524H80.7545C80.1435 49.7524 79.6508 50.2483 79.6508 50.8543C79.6508 51.4603 80.1435 51.9562 80.7545 51.9562ZM80.7545 67.4965H84.4952C85.1062 67.4965 85.599 67.0007 85.599 66.3946C85.599 65.7846 85.1023 65.2927 84.4952 65.2927H80.7545C80.1435 65.2927 79.6508 65.7885 79.6508 66.3946C79.6508 67.0006 80.1435 67.4965 80.7545 67.4965ZM71.3534 28.6448H75.0941C75.7051 28.6448 76.1979 28.149 76.1979 27.5429C76.1979 26.933 75.7012 26.441 75.0941 26.441H71.3534C70.7424 26.441 70.2497 26.9369 70.2497 27.5429C70.2497 28.1489 70.7463 28.6448 71.3534 28.6448ZM71.3534 59.7254H75.0941C75.7051 59.7254 76.1979 59.2295 76.1979 58.6235C76.1979 58.0135 75.7012 57.5216 75.0941 57.5216H71.3534C70.7424 57.5216 70.2497 58.0174 70.2497 58.6235C70.2497 59.2334 70.7463 59.7254 71.3534 59.7254ZM71.3534 67.4973H75.0941C75.7051 67.4973 76.1979 67.0015 76.1979 66.3954C76.1979 65.7854 75.7012 65.2935 75.0941 65.2935H71.3534C70.7424 65.2935 70.2497 65.7893 70.2497 66.3954C70.2497 67.0014 70.7463 67.4973 71.3534 67.4973ZM71.3534 51.957H75.0941C75.7051 51.957 76.1979 51.4612 76.1979 50.8551C76.1979 50.2452 75.7012 49.7532 75.0941 49.7532H71.3534C70.7424 49.7532 70.2497 50.2491 70.2497 50.8551C70.2497 51.4612 70.7463 51.957 71.3534 51.957ZM71.3534 36.4127H75.0941C75.7051 36.4127 76.1979 35.9169 76.1979 35.3108C76.1979 34.7009 75.7012 34.2089 75.0941 34.2089H71.3534C70.7424 34.2089 70.2497 34.7048 70.2497 35.3108C70.2497 35.9208 70.7463 36.4127 71.3534 36.4127ZM71.3534 44.1847H75.0941C75.7051 44.1847 76.1979 43.6889 76.1979 43.0828C76.1979 42.4728 75.7012 41.9809 75.0941 41.9809H71.3534C70.7424 41.9809 70.2497 42.4767 70.2497 43.0828C70.2497 43.6927 70.7463 44.1847 71.3534 44.1847Z" fill="#DCE026"/>
</svg>
