<svg width="100" height="75" viewBox="0 0 100 75" fill="none" xmlns="http://www.w3.org/2000/svg">
<path d="M70.3664 21.6369C71.3858 12.6931 63.2968 2.82616 53.0607 0.519508C51.5336 0.174553 49.9191 0 48.2672 0C42.7538 0 37.1568 1.89937 32.913 5.21168C28.6521 8.53653 26.2512 12.8837 26.1512 17.4557C26.0639 21.5453 27.8615 25.5891 31.3442 29.1507C32.6716 30.5055 34.5191 31.1705 36.4124 30.9585C38.314 30.7507 39.9784 29.6992 40.9812 28.0743C42.4791 25.6555 42.1379 22.5674 40.1573 20.5601C39.0838 19.4712 38.4513 18.4114 38.4638 17.7214C38.4763 17.098 39.1088 15.9842 40.4986 14.8995C43.1742 12.8132 47.2021 11.8116 50.352 12.5139C54.846 13.528 58.3787 18.0456 58.129 20.24C58.0624 20.8177 57.1262 21.5866 54.9208 23.1991C51.979 25.3478 48.3173 28.0201 45.5835 32.9659C42.1839 39.1335 41.514 46.6186 43.5987 55.2174C44.0023 56.884 45.105 58.3138 46.6237 59.1408C47.5391 59.6395 48.5586 59.8889 49.5821 59.8889C50.2687 59.8889 50.9595 59.7766 51.6211 59.5439C54.6129 58.4966 56.3022 55.367 55.5533 52.2624C54.2301 46.7806 54.5089 42.2878 56.3688 38.9087C57.7836 36.3486 59.8267 34.8565 62.1901 33.1318C65.3525 30.821 69.6799 27.6582 70.3707 21.6315L70.3664 21.6369ZM54.1802 37.7122C52.0081 41.6521 51.6503 46.7475 53.1192 52.8522C53.5686 54.7059 52.5658 56.5719 50.789 57.1953C49.807 57.5361 48.7251 57.453 47.8097 56.9543C46.8942 56.4597 46.2618 55.6326 46.0162 54.6352C44.0855 46.6638 44.6722 39.7813 47.7639 34.1785C50.2313 29.7107 53.6434 27.2212 56.3897 25.218C59.1028 23.2355 60.4176 22.209 60.609 20.5257C61.0542 16.6148 56.0652 11.2493 50.8971 10.0857C50.0358 9.89449 49.1286 9.79475 48.1924 9.79475C44.9301 9.79475 41.4806 10.9709 38.9548 12.9367C37.0865 14.3955 35.9964 16.1203 35.9631 17.6663C35.9339 19.0961 36.7453 20.6587 38.3723 22.3087C39.5416 23.4932 39.737 25.3259 38.8508 26.7598C38.2516 27.724 37.2613 28.3516 36.1295 28.4763C34.9977 28.601 33.9075 28.2103 33.121 27.404C30.071 24.2911 28.5648 20.9621 28.6396 17.5084C28.7229 13.7015 30.7867 10.0317 34.4443 7.17231C38.2558 4.19653 43.2907 2.48846 48.2592 2.48846C49.7322 2.48846 51.1595 2.64224 52.5035 2.94563C61.5745 4.99045 68.761 13.5937 67.879 21.3489C67.3131 26.2904 63.8053 28.8547 60.7095 31.1198C58.3252 32.8612 55.8577 34.6607 54.1767 37.7072L54.1802 37.7122Z" fill="#9AFF29"/>
<path d="M96.1779 31.5986C95.4997 30.5222 94.6716 29.4998 93.727 28.5564C90.5688 25.4019 86.2787 23.2906 81.9509 22.7628C77.5901 22.2225 73.6913 23.3571 70.9951 25.9339C68.5817 28.2447 67.2792 31.6069 67.2335 35.655C67.2169 37.2509 67.9243 38.7387 69.1726 39.7362C70.4292 40.7378 72.0395 41.0993 73.5999 40.7295C75.9259 40.1809 77.5613 38.1444 77.582 35.7755C77.5903 34.4165 77.8816 33.6517 78.1521 33.394C78.46 33.099 79.3837 32.8621 80.6945 33.0158C82.7542 33.2694 84.8763 34.3126 86.3784 35.8129C86.7945 36.2285 87.1482 36.6649 87.4353 37.1179C89.2787 40.0313 88.8293 44.5033 87.5144 45.5506C87.2023 45.7958 85.8999 45.6171 84.2188 45.3594C81.3143 44.9106 77.6943 44.3495 73.3045 45.6171C67.8286 47.1964 63.164 51.0906 59.4395 57.1834C58.6863 58.4178 58.4949 59.9222 58.9068 61.3145C59.3229 62.7192 60.3174 63.883 61.6323 64.5146C62.3522 64.8596 63.1095 65.0258 63.8627 65.0258C65.6145 65.0258 67.3164 64.1281 68.2984 62.5239C70.6203 58.7335 73.2709 56.3854 76.1752 55.5458C78.3723 54.9099 80.3447 55.2175 82.6332 55.5707C85.7706 56.057 90.069 56.7219 93.9555 53.634C99.6852 49.079 100.726 38.7801 96.1816 31.5942L96.1779 31.5986Z" fill="#9AFF29"/>
<path d="M31.59 53.2138C31.4901 50.9322 32.2516 49.091 33.1337 46.9506C34.3446 44.0165 36.0048 40.0017 33.916 35.5046C30.8327 28.8673 21.0587 25.4386 12.9896 28.1567C11.7871 28.564 10.597 29.1251 9.45272 29.8192C5.64123 32.1424 2.57455 35.8163 1.04328 39.8893C-0.504597 44.0038 -0.325746 48.0435 1.55093 51.2725C3.23196 54.1609 6.19883 56.2141 10.1269 57.2115C11.6747 57.6105 13.2893 57.2697 14.5542 56.293C15.8233 55.3122 16.5556 53.8326 16.5681 52.2284C16.5806 49.8386 14.9827 47.7731 12.6817 47.1954C11.3585 46.867 10.6886 46.4016 10.5013 46.0815C10.2849 45.7116 10.2683 44.7557 10.7301 43.5214C11.4583 41.5847 12.973 39.7644 14.7913 38.6588C15.2906 38.3554 15.7983 38.1144 16.306 37.944C19.5765 36.8384 23.8208 38.3263 24.5282 39.8517C24.6947 40.2132 24.2162 41.4393 23.5629 43.0145C22.4435 45.7243 21.0496 49.099 21.2535 53.6625C21.5031 59.3481 24.1953 64.7926 29.2468 69.8378C30.2663 70.8561 31.6935 71.4047 33.1332 71.3298C34.5979 71.255 35.9669 70.5651 36.8947 69.4347C38.5799 67.3774 38.4177 64.3934 36.5244 62.4941C33.3828 59.348 31.7184 56.2226 31.5894 53.2052L31.59 53.2138Z" fill="#9AFF29"/>
<path d="M53.6391 63.7245C52.5614 62.7271 51.2631 62.3281 50.0606 62.619C48.8622 62.9141 47.8969 63.8783 47.4058 65.2623C46.9731 66.48 46.9356 67.9471 47.2893 69.3892C47.6471 70.8314 48.367 72.1115 49.3157 72.9884C50.1604 73.7697 51.1466 74.1853 52.1077 74.1853C52.374 74.1853 52.6362 74.1563 52.8942 74.0898C54.0926 73.7947 55.0579 72.8305 55.5489 71.4465C55.9817 70.2288 56.0191 68.7617 55.6654 67.3195C55.3076 65.8773 54.5878 64.5973 53.6391 63.7203L53.6391 63.7245Z" fill="#9AFF29"/>
</svg>
