<svg width="49" height="68" viewBox="0 0 49 68" fill="none" xmlns="http://www.w3.org/2000/svg">
<path d="M45.2386 58.4826C45.4481 52.442 43.4693 46.5279 39.6636 41.8206C37.8973 40.0557 35.8824 38.5565 33.6824 37.37C31.061 35.862 30.2119 35.2735 30.2119 33.6919C30.2119 32.1103 31.061 31.485 33.6824 29.9769C35.8903 28.818 37.9073 27.3295 39.6636 25.5632C43.474 20.8585 45.4535 14.9425 45.2386 8.90116C46.3151 8.63565 47.2565 7.98631 47.8849 7.07598C48.5132 6.16566 48.7849 5.05748 48.6485 3.96109C48.512 2.86471 47.977 1.85615 47.1445 1.12623C46.3121 0.396312 45.24 -0.00435299 44.131 3.56747e-05H4.5519C3.44294 -0.00435299 2.37083 0.396312 1.53838 1.12623C0.705933 1.85615 0.170883 2.86471 0.0344526 3.96109C-0.101978 5.05748 0.169674 6.16566 0.798015 7.07598C1.42636 7.98631 2.36781 8.63565 3.44427 8.90116C3.22945 14.9425 5.20889 20.8585 9.01932 25.5632C10.7756 27.3295 12.7926 28.818 15.0005 29.9769C17.6219 31.485 18.471 32.1103 18.471 33.6919C18.471 35.2735 17.6219 35.862 15.0005 37.37C12.8005 38.5565 10.7856 40.0557 9.01932 41.8206C5.21361 46.5279 3.23477 52.442 3.44427 58.4826C2.36781 58.7481 1.42636 59.3975 0.798015 60.3078C0.169674 61.2181 -0.101978 62.3263 0.0344526 63.4227C0.170883 64.5191 0.705933 65.5276 1.53838 66.2575C2.37083 66.9874 3.44294 67.3881 4.5519 67.3837H44.131C45.24 67.3881 46.3121 66.9874 47.1445 66.2575C47.977 65.5276 48.512 64.5191 48.6485 63.4227C48.7849 62.3263 48.5132 61.2181 47.8849 60.3078C47.2565 59.3975 46.3151 58.7481 45.2386 58.4826ZM4.5519 3.67819H44.131C44.3562 3.67819 44.5722 3.76731 44.7315 3.92596C44.8907 4.08462 44.9802 4.29979 44.9802 4.52416C44.9802 4.74853 44.8907 4.9637 44.7315 5.12235C44.5722 5.281 44.3562 5.37013 44.131 5.37013H4.5519C4.32668 5.37013 4.11069 5.281 3.95144 5.12235C3.79218 4.9637 3.70272 4.74853 3.70272 4.52416C3.70272 4.29979 3.79218 4.08462 3.95144 3.92596C4.11069 3.76731 4.32668 3.67819 4.5519 3.67819ZM17.8065 25.1954C16.0358 24.3166 14.4258 23.1479 13.0437 21.7379C11.8838 20.5319 11.0018 19.0884 10.4592 17.508C10.3142 17.0848 10.3235 16.6242 10.4855 16.2071C10.6476 15.79 10.952 15.4432 11.3453 15.2276C11.7145 15.0804 19.911 10.9977 25.486 15.4483C28.5504 17.8758 34.1993 15.5954 35.8607 14.823C36.1948 14.675 36.5649 14.6275 36.9257 14.6863C37.2865 14.7451 37.6221 14.9077 37.8914 15.154C38.1524 15.3977 38.3367 15.7117 38.4219 16.0577C38.5071 16.4038 38.4895 16.7671 38.3714 17.1034C37.8035 18.8359 36.8722 20.4283 35.6392 21.7747C34.2315 23.1711 32.6117 24.3379 30.8395 25.2321C28.891 26.1865 27.196 27.5853 25.8921 29.3149C25.7248 29.573 25.4952 29.7852 25.2243 29.9322C24.9534 30.0791 24.6499 30.1561 24.3415 30.1561C24.033 30.1561 23.7295 30.0791 23.4586 29.9322C23.1877 29.7852 22.9581 29.573 22.7908 29.3149C21.4726 27.5751 19.7662 26.1648 17.8065 25.1954ZM24.3784 41.7102C23.8888 41.7102 23.4192 41.5165 23.073 41.1716C22.7268 40.8267 22.5323 40.3589 22.5323 39.8712V38.9516C22.5323 38.4639 22.7268 37.9961 23.073 37.6512C23.4192 37.3063 23.8888 37.1126 24.3784 37.1126C24.868 37.1126 25.3375 37.3063 25.6837 37.6512C26.0299 37.9961 26.2244 38.4639 26.2244 38.9516V39.8712C26.2244 40.3589 26.0299 40.8267 25.6837 41.1716C25.3375 41.5165 24.868 41.7102 24.3784 41.7102ZM26.2244 44.3217V45.278C26.2168 45.7634 26.0199 46.2268 25.6753 46.5701C25.3307 46.9133 24.8656 47.1095 24.3784 47.1171C23.8888 47.1171 23.4192 46.9234 23.073 46.5785C22.7268 46.2336 22.5323 45.7658 22.5323 45.278V44.3217C22.5323 43.834 22.7268 43.3662 23.073 43.0213C23.4192 42.6764 23.8888 42.4827 24.3784 42.4827C24.868 42.4827 25.3375 42.6764 25.6837 43.0213C26.0299 43.3662 26.2244 43.834 26.2244 44.3217ZM24.4153 47.8528C29.4365 47.8528 37.9652 55.7608 40.5866 58.3355H8.13321C10.7915 55.7608 19.431 47.8528 24.4153 47.8528ZM44.131 63.7056H4.5519C4.32757 63.7027 4.11325 63.6127 3.95461 63.4546C3.79598 63.2966 3.70559 63.0831 3.70272 62.8596C3.70072 62.748 3.72131 62.6371 3.76328 62.5335C3.80525 62.43 3.86772 62.3359 3.94698 62.257C4.02623 62.178 4.12065 62.1158 4.22458 62.074C4.32851 62.0322 4.43983 62.0116 4.5519 62.0136H44.131C44.2431 62.0116 44.3544 62.0322 44.4583 62.074C44.5623 62.1158 44.6567 62.178 44.7359 62.257C44.8152 62.3359 44.8777 62.43 44.9196 62.5335C44.9616 62.6371 44.9822 62.748 44.9802 62.8596C44.9773 63.0831 44.8869 63.2966 44.7283 63.4546C44.5697 63.6127 44.3553 63.7027 44.131 63.7056Z" fill="#FFC815"/>
</svg>
