<svg width="56" height="81" viewBox="0 0 56 81" fill="none" xmlns="http://www.w3.org/2000/svg">
<path d="M40.3009 47.2977C58.2237 35.6086 54.1816 7.51986 33.7472 1.22C20.1682 -3.10153 5.59078 4.424 1.26582 18.0138C-6.0898 41.1758 20.1483 60.8762 40.3009 47.2977ZM19.8445 44.9049C9.3367 41.5608 3.49624 30.2931 6.83975 19.7871C15.9262 -5.17253 51.9854 6.3033 44.9743 31.9235C41.6309 42.429 30.3663 48.2535 19.8445 44.9049ZM31.5213 8.21408C21.7952 5.11875 11.3601 10.5023 8.26089 20.2404C1.78554 43.933 35.1567 54.5533 43.5517 31.4717C46.6507 21.734 41.2606 11.3136 31.5204 8.21379L31.5213 8.21408ZM24.664 14.3605C21.1216 13.7811 16.5309 16.2497 15.0657 19.525C14.6055 20.3805 13.2987 19.7141 13.7492 18.8399C14.3328 17.6949 15.7289 15.5717 18.3568 14.1536C20.5058 12.9119 25.7033 12.0298 25.4856 13.6983C25.4488 14.1092 25.0751 14.3974 24.664 14.3605ZM35.8928 57.261L33.2798 52.1867L33.3082 52.1957C35.8229 51.4775 38.215 50.4069 40.428 49.0134L42.8419 53.6799L35.8883 57.2751L35.8928 57.261ZM52.5422 79.0448L51.024 79.8298C48.8078 80.9875 45.8645 80.0508 44.7109 77.8206L35.1422 59.3232L44.1951 54.6426L44.9965 54.2401L54.5506 72.7329C55.7605 74.934 54.8016 77.9479 52.5422 79.0448Z" fill="#28E8C9"/>
</svg>
