<svg width="85" height="88" viewBox="0 0 85 88" fill="none" xmlns="http://www.w3.org/2000/svg">
<path d="M48.9016 8.81162C38.1006 -2.54038 20.1516 -2.97738 8.81162 7.81162C-2.54038 18.6006 -2.97738 36.5616 7.81162 47.9016C18.6126 59.2536 36.5616 59.6906 47.9016 48.9016C59.2496 38.1086 59.7026 20.1596 48.9016 8.81162ZM45.2297 46.1006C35.4406 55.4209 19.9287 55.0303 10.6087 45.2412C1.31182 35.4482 1.69072 19.9402 11.4798 10.6202C21.2689 1.31164 36.7808 1.69054 46.0888 11.4796C55.4091 21.2804 55.0305 36.7806 45.2297 46.1006ZM44.5696 12.9406C36.0501 3.99142 21.8896 3.63202 12.9406 12.1516C3.99156 20.6711 3.63976 34.8316 12.1515 43.7806C20.671 52.7298 34.8315 53.0814 43.7805 44.5696C52.7297 36.0501 53.0813 21.8896 44.5696 12.9406ZM30.1206 42.2416C30.1206 43.2104 29.3315 44.0033 28.3589 44.0033C27.3901 44.0033 26.5972 43.2143 26.5972 42.2416L26.6011 42.019C26.6011 41.0502 27.3901 40.2573 28.3628 40.2573C29.3315 40.2573 30.1245 41.0463 30.1245 42.019L30.1206 42.2416ZM36.23 25.9296C35.519 27.2382 34.4995 28.3593 33.2612 29.1796C32.2417 29.8515 31.4526 30.7108 30.9214 31.6991C30.3901 32.6796 30.1206 33.8085 30.1206 35.0389V35.8983C30.1206 36.867 29.3315 37.66 28.3589 37.66C27.3901 37.66 26.5972 36.8709 26.5972 35.8983V35.0389C26.5972 33.2303 27.0191 31.5389 27.8277 30.0389C28.6285 28.5506 29.8082 27.2577 31.316 26.2577C32.0777 25.7577 32.7066 25.0663 33.1363 24.2694C33.5464 23.4999 33.7847 22.621 33.7847 21.6796C33.7847 20.1796 33.1753 18.8202 32.1949 17.8398C31.2144 16.8515 29.8551 16.25 28.3551 16.25C26.8551 16.25 25.4957 16.8594 24.5153 17.8398C23.527 18.8203 22.9255 20.1796 22.9255 21.6796C22.9255 22.6484 22.1365 23.4413 21.1638 23.4413C20.1951 23.4413 19.4138 22.6523 19.4138 21.6796C19.4138 19.2108 20.4138 16.9687 22.0349 15.3515C23.656 13.7304 25.8943 12.7304 28.363 12.7304C30.8317 12.7304 33.0739 13.7304 34.6911 15.3515C36.3122 16.9726 37.3122 19.2109 37.3122 21.6796C37.3122 23.2108 36.9213 24.6601 36.23 25.9296ZM56.332 50.3316L48.8711 57.4332C48.7304 57.5621 48.6015 57.7028 48.4726 57.8434L44.871 53.9723C46.4413 52.9528 47.9491 51.7731 49.3593 50.4332C50.7577 49.1051 51.9999 47.6715 53.0898 46.152L56.6914 50.0114C56.5703 50.109 56.4413 50.2222 56.332 50.3316ZM66.762 55.4293L53.442 68.1093L50.1803 64.6796C48.6491 63.0702 48.7115 60.4882 50.3209 58.9608L57.7701 51.8592C59.3795 50.328 61.9615 50.3904 63.4889 51.9998L66.762 55.4293ZM83.633 79.0313L76.1721 86.1329C74.5627 87.6641 71.9807 87.6017 70.4533 85.9923L55.2033 69.9493L68.5233 57.2773L83.7853 73.3083C85.3126 74.9216 85.2423 77.4922 83.633 79.0313Z" fill="#0225CB"/>
</svg>
