<svg width="46" height="46" viewBox="0 0 46 46" fill="none" xmlns="http://www.w3.org/2000/svg">
<path d="M31.2143 0H14.7857C6.63294 0 0 6.63294 0 14.7857V31.2143C0 39.3671 6.63294 46 14.7857 46H31.2143C39.3671 46 46 39.3671 46 31.2143V14.7857C46 6.63294 39.3671 0 31.2143 0ZM42.7143 31.2143C42.7143 37.5555 37.5557 42.7143 31.2143 42.7143H14.7857C8.44455 42.7143 3.28571 37.5557 3.28571 31.2143V14.7857C3.28571 8.44455 8.44429 3.28571 14.7857 3.28571H31.2143C37.5555 3.28571 42.7143 8.44429 42.7143 14.7857V31.2143Z" fill="#031C7C"/>
<path d="M31.6806 11.5H14.3199C13.4122 11.5 12.6771 12.2352 12.6771 13.1429C12.6771 14.0506 13.4122 14.7857 14.3199 14.7857H31.6806C32.5883 14.7857 33.3235 14.0506 33.3235 13.1429C33.3235 12.2352 32.5883 11.5 31.6806 11.5Z" fill="#031C7C"/>
<path d="M31.6806 21.3572H14.3199C13.4122 21.3572 12.6771 22.0923 12.6771 23C12.6771 23.9077 13.4122 24.6429 14.3199 24.6429H31.6806C32.5883 24.6429 33.3235 23.9077 33.3235 23C33.3235 22.0923 32.5883 21.3572 31.6806 21.3572Z" fill="#031C7C"/>
<path d="M31.6806 31.2142H14.3199C13.4122 31.2142 12.6771 31.9494 12.6771 32.8571C12.6771 33.7648 13.4122 34.4999 14.3199 34.4999H31.6806C32.5883 34.4999 33.3235 33.7648 33.3235 32.8571C33.3235 31.9494 32.5883 31.2142 31.6806 31.2142Z" fill="#031C7C"/>
</svg>
