<svg width="93" height="68" viewBox="0 0 93 68" fill="none" xmlns="http://www.w3.org/2000/svg">
<path d="M41.8649 0.541793C35.1711 -0.981407 26.0357 0.704993 17.4215 5.62819C3.89674 13.353 -3.236 26.137 1.42771 34.161C4.41798 39.3018 11.5233 41.233 19.7808 39.9818C15.995 39.1114 13.0047 37.2346 11.3313 34.3514C6.66754 26.3274 13.8003 13.5434 27.2976 5.81859C32.1534 3.01699 37.2012 1.27619 41.8649 0.541793Z" fill="#FFC815"/>
<path d="M41.9746 32.2294C43.9773 38.7302 50.0127 45.7478 58.6543 50.671C72.1516 58.3958 86.8835 58.151 91.5746 50.127C94.5649 44.9862 92.7268 37.9142 87.487 31.4678C88.6118 35.1398 88.4746 38.6486 86.8012 41.559C82.1374 49.583 67.3781 49.8278 53.8808 42.103C48.9976 39.3286 44.9374 35.8742 41.9746 32.2294Z" fill="#FFC815"/>
<path d="M32.8392 16.4536C28.1481 21.4312 25.0755 30.108 25.0755 40.0088C25.0755 55.4584 32.6472 67.9976 42.0021 67.9976C47.9826 67.9976 53.2224 62.884 56.2401 55.1592C53.6065 57.9608 50.4516 59.5928 47.0773 59.5928C37.7224 59.5928 30.1507 47.0536 30.1507 31.604C30.1233 26.028 31.1109 20.8328 32.8392 16.4536Z" fill="#FFC815"/>
</svg>
